<svg width="1em" height="1em" viewBox="0 0 28 28" fill="none" xmlns="http://www.w3.org/2000/svg">
<g clip-path="url(#clip0_1140_20032)">
<path d="M8.18376 14.0001C8.18376 13.3651 8.29209 12.756 8.48376 12.1851L5.11876 9.66846C4.44268 11.0122 4.09159 12.4959 4.09376 14.0001C4.09376 15.5568 4.46209 17.0251 5.11709 18.3285L8.48043 15.8076C8.28432 15.2252 8.18412 14.6147 8.18376 14.0001Z" fill="#FBBC05"/>
<path d="M14.0922 8.22266C15.5005 8.22266 16.773 8.71099 17.773 9.51099L20.6822 6.66682C18.9097 5.15599 16.6372 4.22266 14.0922 4.22266C10.1405 4.22266 6.74385 6.43516 5.11719 9.66849L8.48385 12.1852C9.25885 9.88016 11.4689 8.22266 14.0922 8.22266Z" fill="#EA4335"/>
<path d="M14.0922 19.7774C11.468 19.7774 9.25802 18.1199 8.48219 15.8149L5.11719 18.3316C6.74302 21.5649 10.1397 23.7774 14.0922 23.7774C16.5305 23.7774 18.8589 22.9299 20.6072 21.3408L17.4122 18.9224C16.5114 19.4783 15.3764 19.7774 14.0914 19.7774" fill="#34A853"/>
<path d="M23.6396 14.0002C23.6396 13.4227 23.5479 12.8002 23.4121 12.2227H14.0938V16.0002H19.4571C19.1896 17.2885 18.4596 18.2785 17.4154 18.9227L20.6096 21.341C22.4454 19.6727 23.6396 17.1877 23.6396 14.0002Z" fill="#4285F4"/>
</g>
<defs>
<clipPath id="clip0_1140_20032">
<rect width="20" height="20" fill="white" transform="translate(4 4)"/>
</clipPath>
</defs>
</svg>
