<svg width="1em" height="1em" viewBox="0 0 28 28" fill="none" xmlns="http://www.w3.org/2000/svg">
<path fill-rule="evenodd" clip-rule="evenodd" d="M14.4646 25H13.5486H13.5485C8.57479 25 6.0888 25 4.5444 23.4556C3 21.9112 3 19.4252 3 14.4647V14.4646V13.5354V13.5354C3 8.57392 3 6.0888 4.5444 4.54441C6.0888 3 8.5748 3 13.5486 3H14.4646C19.4375 3 21.9376 3 23.4688 4.54441C25 6.0888 25 8.57568 25 13.5354V14.4646V14.5897C25.0001 19.4671 25.0002 21.9242 23.4688 23.4556C21.9244 25 19.4375 25 14.4647 25H14.4646ZM6.71055 9.70059C6.82759 15.4197 9.83807 18.8614 14.7986 18.8614H15.0864V15.5895C16.8921 15.7726 18.2403 17.1207 18.7903 18.8614H21.3942C20.6876 16.2575 18.8554 14.8178 17.7167 14.2678C18.8554 13.5875 20.4649 11.9384 20.8442 9.70059H18.4761C17.9781 11.5195 16.4997 13.1687 15.0864 13.3253V9.70059H12.6778V16.048C11.2126 15.6846 9.30127 13.9017 9.22295 9.70059H6.71055Z" fill="#0077FF"/>
</svg>
